<?xml version="1.0" encoding="UTF-8" standalone="no"?>
<!DOCTYPE svg PUBLIC "-//W3C//DTD SVG 1.1//EN"
 "http://www.w3.org/Graphics/SVG/1.1/DTD/svg11.dtd">
<!-- Generated by graphviz version 2.47.0 (20210316.0004)
 -->
<!-- Title: dependencies Pages: 1 -->
<svg width="504pt" height="211pt"
 viewBox="0.00 0.00 504.00 211.00" xmlns="http://www.w3.org/2000/svg" xmlns:xlink="http://www.w3.org/1999/xlink">
<g id="graph0" class="graph" transform="scale(1 1) rotate(0) translate(4 207)">
<title>dependencies</title>
<polygon fill="white" stroke="transparent" points="-4,4 -4,-207 500,-207 500,4 -4,4"/>
<text text-anchor="start" x="227.01" y="-42.4" font-family="Times-12" font-weight="bold" font-size="14.00">Legend</text>
<polygon fill="#ffffb3" stroke="transparent" points="14,-10 14,-30 34,-30 34,-10 14,-10"/>
<text text-anchor="start" x="37.63" y="-15.4" font-family="Times-12" font-size="14.00"> &#160;Declarations</text>
<polygon fill="#8dd3c7" stroke="transparent" points="127,-10 127,-30 147,-30 147,-10 127,-10"/>
<text text-anchor="start" x="150.73" y="-15.4" font-family="Times-12" font-size="14.00"> &#160;Module</text>
<polygon fill="#80b1d3" stroke="transparent" points="213,-10 213,-30 233,-30 233,-10 213,-10"/>
<text text-anchor="start" x="236.78" y="-15.4" font-family="Times-12" font-size="14.00"> &#160;Bootstrap</text>
<polygon fill="#fdb462" stroke="transparent" points="310,-10 310,-30 330,-30 330,-10 310,-10"/>
<text text-anchor="start" x="333.67" y="-15.4" font-family="Times-12" font-size="14.00"> &#160;Providers</text>
<polygon fill="#fb8072" stroke="transparent" points="406,-10 406,-30 426,-30 426,-10 406,-10"/>
<text text-anchor="start" x="429.73" y="-15.4" font-family="Times-12" font-size="14.00"> &#160;Exports</text>
<g id="clust1" class="cluster">
<title>cluster_ClassPresentationModule</title>
<polygon fill="none" stroke="black" stroke-dasharray="1,5" points="106,-70 106,-195 390,-195 390,-70 106,-70"/>
</g>
<g id="clust3" class="cluster">
<title>cluster_ClassPresentationModule_imports</title>
<polygon fill="none" stroke="black" points="114,-78 114,-130 382,-130 382,-78 114,-78"/>
</g>
<!-- ClassApplicationModule -->
<g id="node1" class="node">
<title>ClassApplicationModule</title>
<polygon fill="#8dd3c7" stroke="black" points="373.98,-122 370.98,-126 349.98,-126 346.98,-122 218.02,-122 218.02,-86 373.98,-86 373.98,-122"/>
<text text-anchor="middle" x="296" y="-99.8" font-family="Times,serif" font-size="14.00">ClassApplicationModule</text>
</g>
<!-- ClassPresentationModule -->
<g id="node3" class="node">
<title>ClassPresentationModule</title>
<polygon fill="#8dd3c7" stroke="black" points="324.58,-187 321.58,-191 300.58,-191 297.58,-187 165.42,-187 165.42,-151 324.58,-151 324.58,-187"/>
<text text-anchor="middle" x="245" y="-164.8" font-family="Times,serif" font-size="14.00">ClassPresentationModule</text>
</g>
<!-- ClassApplicationModule&#45;&gt;ClassPresentationModule -->
<g id="edge1" class="edge">
<title>ClassApplicationModule&#45;&gt;ClassPresentationModule</title>
<path fill="none" stroke="black" d="M271.28,-122.11C271.28,-122.11 271.28,-140.99 271.28,-140.99"/>
<polygon fill="black" stroke="black" points="267.78,-140.99 271.28,-150.99 274.78,-140.99 267.78,-140.99"/>
</g>
<!-- SseModule -->
<g id="node2" class="node">
<title>SseModule</title>
<polygon fill="#8dd3c7" stroke="black" points="200.49,-122 197.49,-126 176.49,-126 173.49,-122 121.51,-122 121.51,-86 200.49,-86 200.49,-122"/>
<text text-anchor="middle" x="161" y="-99.8" font-family="Times,serif" font-size="14.00">SseModule</text>
</g>
<!-- SseModule&#45;&gt;ClassPresentationModule -->
<g id="edge2" class="edge">
<title>SseModule&#45;&gt;ClassPresentationModule</title>
<path fill="none" stroke="black" d="M182.98,-122.11C182.98,-122.11 182.98,-140.99 182.98,-140.99"/>
<polygon fill="black" stroke="black" points="179.48,-140.99 182.98,-150.99 186.48,-140.99 179.48,-140.99"/>
</g>
</g>
</svg>
