<?xml version="1.0" encoding="UTF-8" standalone="no"?>
<!DOCTYPE svg PUBLIC "-//W3C//DTD SVG 1.1//EN"
 "http://www.w3.org/Graphics/SVG/1.1/DTD/svg11.dtd">
<!-- Generated by graphviz version 2.47.0 (20210316.0004)
 -->
<!-- Title: dependencies Pages: 1 -->
<svg width="504pt" height="211pt"
 viewBox="0.00 0.00 504.00 211.00" xmlns="http://www.w3.org/2000/svg" xmlns:xlink="http://www.w3.org/1999/xlink">
<g id="graph0" class="graph" transform="scale(1 1) rotate(0) translate(4 207)">
<title>dependencies</title>
<polygon fill="white" stroke="transparent" points="-4,4 -4,-207 500,-207 500,4 -4,4"/>
<text text-anchor="start" x="227.01" y="-42.4" font-family="Times-12" font-weight="bold" font-size="14.00">Legend</text>
<polygon fill="#ffffb3" stroke="transparent" points="14,-10 14,-30 34,-30 34,-10 14,-10"/>
<text text-anchor="start" x="37.63" y="-15.4" font-family="Times-12" font-size="14.00"> &#160;Declarations</text>
<polygon fill="#8dd3c7" stroke="transparent" points="127,-10 127,-30 147,-30 147,-10 127,-10"/>
<text text-anchor="start" x="150.73" y="-15.4" font-family="Times-12" font-size="14.00"> &#160;Module</text>
<polygon fill="#80b1d3" stroke="transparent" points="213,-10 213,-30 233,-30 233,-10 213,-10"/>
<text text-anchor="start" x="236.78" y="-15.4" font-family="Times-12" font-size="14.00"> &#160;Bootstrap</text>
<polygon fill="#fdb462" stroke="transparent" points="310,-10 310,-30 330,-30 330,-10 310,-10"/>
<text text-anchor="start" x="333.67" y="-15.4" font-family="Times-12" font-size="14.00"> &#160;Providers</text>
<polygon fill="#fb8072" stroke="transparent" points="406,-10 406,-30 426,-30 426,-10 406,-10"/>
<text text-anchor="start" x="429.73" y="-15.4" font-family="Times-12" font-size="14.00"> &#160;Exports</text>
<g id="clust1" class="cluster">
<title>cluster_ClassApplicationModule</title>
<polygon fill="none" stroke="black" stroke-dasharray="1,5" points="116.5,-70 116.5,-195 379.5,-195 379.5,-70 116.5,-70"/>
</g>
<g id="clust3" class="cluster">
<title>cluster_ClassApplicationModule_imports</title>
<polygon fill="none" stroke="black" points="124.5,-78 124.5,-130 371.5,-130 371.5,-78 124.5,-78"/>
</g>
<!-- ClassDomainModule -->
<g id="node1" class="node">
<title>ClassDomainModule</title>
<polygon fill="#8dd3c7" stroke="black" points="363.98,-122 360.98,-126 339.98,-126 336.98,-122 229.02,-122 229.02,-86 363.98,-86 363.98,-122"/>
<text text-anchor="middle" x="296.5" y="-99.8" font-family="Times,serif" font-size="14.00">ClassDomainModule</text>
</g>
<!-- ClassApplicationModule -->
<g id="node3" class="node">
<title>ClassApplicationModule</title>
<polygon fill="#8dd3c7" stroke="black" points="325.48,-187 322.48,-191 301.48,-191 298.48,-187 169.52,-187 169.52,-151 325.48,-151 325.48,-187"/>
<text text-anchor="middle" x="247.5" y="-164.8" font-family="Times,serif" font-size="14.00">ClassApplicationModule</text>
</g>
<!-- ClassDomainModule&#45;&gt;ClassApplicationModule -->
<g id="edge1" class="edge">
<title>ClassDomainModule&#45;&gt;ClassApplicationModule</title>
<path fill="none" stroke="black" d="M277.25,-122.11C277.25,-122.11 277.25,-140.99 277.25,-140.99"/>
<polygon fill="black" stroke="black" points="273.75,-140.99 277.25,-150.99 280.75,-140.99 273.75,-140.99"/>
</g>
<!-- SseModule -->
<g id="node2" class="node">
<title>SseModule</title>
<polygon fill="#8dd3c7" stroke="black" points="210.99,-122 207.99,-126 186.99,-126 183.99,-122 132.01,-122 132.01,-86 210.99,-86 210.99,-122"/>
<text text-anchor="middle" x="171.5" y="-99.8" font-family="Times,serif" font-size="14.00">SseModule</text>
</g>
<!-- SseModule&#45;&gt;ClassApplicationModule -->
<g id="edge2" class="edge">
<title>SseModule&#45;&gt;ClassApplicationModule</title>
<path fill="none" stroke="black" d="M190.25,-122.11C190.25,-122.11 190.25,-140.99 190.25,-140.99"/>
<polygon fill="black" stroke="black" points="186.75,-140.99 190.25,-150.99 193.75,-140.99 186.75,-140.99"/>
</g>
</g>
</svg>
